<?xml version="1.0" encoding="utf-8"?>
<!-- Generator: Adobe Illustrator 16.0.0, SVG Export Plug-In . SVG Version: 6.00 Build 0)  -->
<!DOCTYPE svg PUBLIC "-//W3C//DTD SVG 1.1//EN" "http://www.w3.org/Graphics/SVG/1.1/DTD/svg11.dtd">
<svg version="1.1" id="Capa_1" xmlns="http://www.w3.org/2000/svg" xmlns:xlink="http://www.w3.org/1999/xlink" x="0px" y="0px"
	 width="185px" height="65px" viewBox="0 0 185 65" enable-background="new 0 0 185 65" xml:space="preserve">
<g opacity="0.9" enable-background="new    ">
	<path fill="#FFFFFF" d="M88.336,35.562H71.938V8.943h15.851v2.706H75.082v8.922h12.011v2.705H75.082v9.58h13.254V35.562z"/>
	<path fill="#FFFFFF" d="M109.102,35.562H93.178V8.943h3.145v23.913h12.742L109.102,35.562z"/>
	<path fill="#FFFFFF" d="M115.971,35.562h-3.145V8.943h3.145V21.01l1.608-1.664l10.165-10.402h3.949L119.096,21.34l13.584,14.225
		h-4.314l-10.859-11.591l-1.535-1.664V35.562L115.971,35.562z"/>
	<path fill="#FFFFFF" d="M135.309,35.562h-3.399l11.041-26.62h3.382l11.061,26.62H153.9l-2.979-7.258H138.16L135.309,35.562z
		 M139.166,25.599h10.676l-4.277-11.061c-0.098-0.231-0.201-0.503-0.311-0.813s-0.214-0.606-0.311-0.887
		c-0.123-0.329-0.238-0.664-0.348-1.006c-0.123,0.391-0.244,0.762-0.365,1.115c-0.099,0.305-0.205,0.605-0.32,0.905
		c-0.116,0.299-0.205,0.533-0.266,0.704L139.166,25.599z"/>
	<path fill="#FFFFFF" d="M163.641,23.643v11.919h-3.145V8.943h6.508c0.721,0,1.51,0.013,2.369,0.037s1.721,0.104,2.586,0.237
		c0.865,0.133,1.701,0.344,2.506,0.63c0.803,0.286,1.52,0.686,2.146,1.197c0.629,0.512,1.129,1.166,1.5,1.964
		c0.371,0.799,0.557,1.77,0.557,2.915c0,0.84-0.133,1.614-0.4,2.32c-0.27,0.706-0.651,1.34-1.151,1.9s-1.101,1.035-1.802,1.425
		c-0.7,0.39-1.479,0.694-2.332,0.914h0.021c0.742,0.243,1.354,0.604,1.836,1.079c0.481,0.476,0.918,1.088,1.31,1.838
		c0.389,0.75,0.772,1.641,1.149,2.671c0.38,1.031,0.843,2.223,1.392,3.576l1.59,3.915h-3.438l-2.797-7.66
		c-0.305-0.829-0.604-1.518-0.903-2.066c-0.3-0.548-0.652-0.983-1.062-1.307c-0.409-0.324-0.892-0.552-1.442-0.686
		c-0.556-0.134-1.242-0.201-2.06-0.201h-4.937V23.643z M163.641,20.937h4.863c0.816,0,1.633-0.072,2.449-0.219
		c0.816-0.146,1.551-0.396,2.203-0.748c0.652-0.352,1.18-0.833,1.582-1.441c0.402-0.608,0.604-1.381,0.604-2.317
		c0-0.912-0.168-1.663-0.504-2.254c-0.334-0.59-0.801-1.055-1.398-1.396c-0.596-0.34-1.297-0.578-2.102-0.711
		c-0.805-0.134-1.682-0.201-2.633-0.201h-5.064V20.937L163.641,20.937z"/>
</g>
<g opacity="0.9" enable-background="new    ">
	<path fill="#FFFFFF" d="M71.8,54.697v-15.42h3.071c0.572,0,1.123,0.008,1.652,0.021c0.53,0.016,1.038,0.051,1.525,0.106
		c0.537,0.062,1.033,0.194,1.488,0.392c0.455,0.198,0.849,0.45,1.181,0.758c0.332,0.307,0.591,0.668,0.778,1.08
		c0.187,0.413,0.281,0.866,0.281,1.36c0,0.424-0.069,0.825-0.207,1.207c-0.138,0.382-0.33,0.726-0.577,1.032
		c-0.248,0.308-0.544,0.574-0.89,0.8c-0.346,0.227-0.724,0.399-1.133,0.521c0.014,0,0.03,0.002,0.048,0.004
		c0.018,0.004,0.033,0.006,0.047,0.006c0.508,0.105,0.975,0.268,1.398,0.481c0.424,0.216,0.787,0.487,1.091,0.815
		c0.304,0.328,0.539,0.705,0.704,1.133c0.166,0.428,0.249,0.906,0.249,1.436c0,0.564-0.107,1.104-0.323,1.62
		c-0.216,0.517-0.539,0.97-0.969,1.36c-0.431,0.393-0.965,0.705-1.604,0.938c-0.639,0.233-1.382,0.351-2.229,0.351L71.8,54.697
		L71.8,54.697z M73.622,45.93h2.076c0.516,0,1.022-0.041,1.52-0.123c0.498-0.08,0.942-0.221,1.334-0.418
		c0.392-0.197,0.708-0.466,0.948-0.805c0.24-0.339,0.36-0.77,0.36-1.292c0-0.517-0.104-0.935-0.312-1.255
		c-0.208-0.321-0.492-0.57-0.853-0.747c-0.36-0.176-0.785-0.295-1.276-0.354c-0.491-0.059-1.022-0.09-1.594-0.09h-2.203V45.93z
		 M73.622,47.496v5.634h2.997c1.264,0,2.24-0.223,2.928-0.667c0.688-0.445,1.033-1.133,1.033-2.064c0-0.559-0.099-1.023-0.296-1.397
		c-0.198-0.374-0.491-0.673-0.879-0.896c-0.388-0.223-0.865-0.379-1.43-0.472c-0.564-0.092-1.218-0.138-1.959-0.138H73.622z"/>
	<path fill="#FFFFFF" d="M90.077,54.697h-1.97l6.396-15.42h1.959l6.407,15.42h-2.021l-1.728-4.204h-7.392L90.077,54.697z
		 M92.312,48.926h6.185l-2.479-6.406c-0.057-0.135-0.115-0.291-0.18-0.472c-0.062-0.181-0.123-0.353-0.18-0.514
		c-0.07-0.191-0.139-0.386-0.201-0.583c-0.07,0.227-0.143,0.441-0.212,0.646c-0.058,0.176-0.118,0.351-0.187,0.522
		c-0.066,0.174-0.117,0.31-0.152,0.407L92.312,48.926z"/>
	<path fill="#FFFFFF" d="M119.367,41.777c-1.08-0.812-2.34-1.219-3.78-1.219c-0.649,0-1.243,0.088-1.778,0.26
		c-0.537,0.174-1.02,0.414-1.447,0.722c-0.426,0.308-0.797,0.669-1.11,1.086s-0.576,0.869-0.783,1.356
		c-0.209,0.487-0.364,1.002-0.467,1.543c-0.103,0.539-0.153,1.082-0.153,1.627c0,0.832,0.109,1.627,0.33,2.379
		c0.219,0.753,0.553,1.412,1.006,1.982c0.45,0.567,1.022,1.021,1.715,1.355c0.691,0.336,1.512,0.503,2.457,0.503
		c0.869,0,1.686-0.125,2.451-0.376c0.766-0.25,1.438-0.63,2.018-1.139l0.615,1.494c-0.657,0.528-1.435,0.926-2.33,1.19
		c-0.896,0.265-1.906,0.396-3.029,0.396c-1.164,0-2.191-0.203-3.082-0.613c-0.889-0.409-1.637-0.969-2.244-1.678
		c-0.607-0.711-1.066-1.537-1.377-2.479s-0.467-1.95-0.467-3.022c0-0.728,0.076-1.434,0.229-2.119
		c0.151-0.685,0.375-1.328,0.668-1.933c0.293-0.604,0.654-1.157,1.084-1.661c0.432-0.506,0.924-0.938,1.479-1.299
		c0.554-0.359,1.166-0.641,1.837-0.842s1.396-0.302,2.182-0.302c0.961,0,1.817,0.128,2.573,0.384s1.454,0.668,2.097,1.236
		L119.367,41.777z"/>
	<path fill="#FFFFFF" d="M129.617,54.697h-1.822v-15.42h1.822v6.99l0.932-0.965l5.889-6.025h2.287l-7.297,7.181l7.868,8.239h-2.499
		l-6.291-6.715l-0.889-0.963V54.697z"/>
	<path fill="#FFFFFF" d="M145.289,39.277h1.82v9.638c0,1.44,0.355,2.544,1.068,3.31c0.713,0.767,1.766,1.148,3.161,1.148
		c0.644,0,1.228-0.102,1.752-0.303c0.524-0.2,0.974-0.489,1.343-0.867c0.371-0.377,0.655-0.838,0.856-1.383
		c0.201-0.543,0.301-1.153,0.301-1.831v-9.712h1.833l-0.011,9.584c-0.009,0.953-0.14,1.809-0.396,2.562
		c-0.259,0.756-0.644,1.393-1.156,1.912c-0.512,0.52-1.149,0.916-1.916,1.189c-0.766,0.275-1.656,0.414-2.674,0.414
		c-1.103,0-2.033-0.146-2.795-0.435c-0.765-0.29-1.381-0.696-1.854-1.224c-0.474-0.525-0.813-1.155-1.022-1.891
		c-0.207-0.734-0.312-1.543-0.312-2.426L145.289,39.277L145.289,39.277z"/>
	<path fill="#FFFFFF" d="M167.452,54.697h-1.822v-15.42h3.611c0.601,0,1.188,0.027,1.764,0.08c0.576,0.053,1.12,0.145,1.636,0.274
		c0.517,0.13,0.99,0.308,1.426,0.529c0.434,0.223,0.809,0.505,1.121,0.848c0.314,0.343,0.561,0.75,0.736,1.224
		c0.178,0.474,0.266,1.026,0.266,1.662c0,0.806-0.176,1.498-0.524,2.075c-0.351,0.579-0.817,1.054-1.408,1.425
		c-0.59,0.371-1.271,0.646-2.038,0.82c-0.771,0.178-1.574,0.266-2.414,0.266h-2.352L167.452,54.697L167.452,54.697z M167.452,40.846
		v6.067h2.764c0.579,0,1.115-0.058,1.609-0.175c0.493-0.116,0.92-0.297,1.276-0.541c0.355-0.243,0.635-0.553,0.836-0.928
		s0.303-0.824,0.303-1.349c0-0.614-0.111-1.123-0.334-1.522c-0.223-0.398-0.533-0.713-0.932-0.943
		c-0.399-0.229-0.877-0.389-1.431-0.477c-0.556-0.09-1.167-0.134-1.838-0.134L167.452,40.846L167.452,40.846z"/>
</g>
<g>
	<circle opacity="0.9" fill="#FFFFFF" enable-background="new    " cx="28.752" cy="32.016" r="0.721"/>
	<circle opacity="0.9" fill="#FFFFFF" enable-background="new    " cx="28.752" cy="28.747" r="0.721"/>
	<g>
		<path opacity="0.9" fill="#FFFFFF" enable-background="new    " d="M32.393,1.017C15.005,1.017,0.909,15.113,0.909,32.5
			c0,17.387,14.096,31.482,31.484,31.482c17.388,0,31.482-14.094,31.482-31.482C63.875,15.113,49.781,1.017,32.393,1.017z
			 M45.029,49.373H19.457c-0.035,0-0.066-0.008-0.1-0.012C13.284,49.15,8.408,44.148,8.408,38.025c0-6.369,3.447-10.629,9.573-10.82
			c0.698-0.031,1.266,0.52,1.288,1.21c0.021,0.689-0.52,1.267-1.211,1.288c-4.723,0.147-7.15,3.357-7.15,8.322
			c0,4.879,3.969,8.848,8.848,8.848h25.272c4.879,0,8.848-3.969,8.848-8.848c0-4.852-3.887-8.649-8.848-8.649
			c-0.611,0-1.117-0.438-1.227-1.017c-0.022-0.077-0.036-0.163-0.036-0.263c0-5.721-4.654-9.875-10.374-9.875
			c-5.72,0-10.373,4.654-10.373,10.375c0,5.72,4.653,10.372,10.373,10.372c3.027,0,5.89-1.315,7.866-3.612l-1.595-1.022l4.37-0.951
			l0.949,4.369l-1.551-0.997c-0.045,0.086-0.097,0.17-0.164,0.248c-2.47,2.898-6.07,4.562-9.875,4.562
			c-7.151,0-12.967-5.816-12.967-12.966c0-7.151,5.816-12.967,12.967-12.967c6.76,0,12.326,4.754,12.912,11.317
			c5.741,0.604,10.071,5.253,10.071,11.079C56.376,44.282,51.285,49.373,45.029,49.373z M38.306,30.248h-9.673
			c-0.828,0-1.5-0.671-1.5-1.5s0.671-1.5,1.5-1.5h9.673c0.828,0,1.5,0.671,1.5,1.5S39.134,30.248,38.306,30.248z M39.806,32.016
			c0,0.828-0.672,1.5-1.5,1.5h-9.673c-0.828,0-1.5-0.672-1.5-1.5c0-0.828,0.671-1.5,1.5-1.5h9.673
			C39.134,30.516,39.806,31.188,39.806,32.016z M38.306,26.894h-9.673c-0.828,0-1.5-0.671-1.5-1.5s0.671-1.5,1.5-1.5h9.673
			c0.828,0,1.5,0.672,1.5,1.5C39.806,26.223,39.134,26.894,38.306,26.894z"/>
		<circle opacity="0.9" fill="#FFFFFF" enable-background="new    " cx="28.752" cy="25.395" r="0.721"/>
	</g>
</g>
</svg>
